<svg height="108" viewBox="0 0 356 108" width="356" xmlns="http://www.w3.org/2000/svg"><path d="m26 29h14.1537033v19.5714286h26.0536323v-19.5714286h14.1537034v51h-14.1537034v-22h-26.0536323v22h-14.1537033zm77.964388 31.2857143h16.677931l-8.113588-18.7142857h-.180302zm1.352265-31.2857143h14.514307l24.070311 51h-14.69461l-4.868152-11.3571429h-24.070311l-5.0484548 11.3571429h-14.2438543zm38.981687 9.4285714h-19.292309v-9.4285714h52.738321v9.4285714h-19.292309v41.5714286h-14.153703zm37.629423 21.8571429h16.677931l-8.113588-18.7142857h-.180302zm1.352265-31.2857143h14.514307l24.070311 51h-14.69461l-4.868152-11.3571429h-24.070311l-5.048455 11.3571429h-14.243854zm39.109317 0h14.153703v41.5714286h31.37254v9.4285714h-45.526243zm68.673772 31.2857143h16.677931l-8.113588-18.7142857h-.180302zm1.352265-31.2857143h14.514307l24.070311 51h-14.694609l-4.868153-11.3571429h-24.070311l-5.048454 11.3571429h-14.243855z" fill-rule="evenodd"/></svg>